HIERARCHY
ROOT Hips
{
	OFFSET -3.958830 18.904000 13.208200
	CHANNELS 6 Xposition Yposition Zposition Zrotation Yrotation Xrotation 
	JOINT LHipJoint
	{
		OFFSET 0.000000 0.000000 0.000000
		CHANNELS 3 Zrotation Yrotation Xrotation
		JOINT LeftUpLeg
		{
			OFFSET 1.800000 -1.400000 0.085000
			CHANNELS 3 Zrotation Yrotation Xrotation
			JOINT LeftLeg
			{
				OFFSET 2.215000 -6.000000 0.000000
				CHANNELS 3 Zrotation Yrotation Xrotation
				JOINT LeftFoot
				{
					OFFSET 2.500000 -6.900000 0.000000
					CHANNELS 3 Zrotation Yrotation Xrotation
					JOINT LeftToeBase
					{
						OFFSET 0.200000 -0.500000 1.950000
						CHANNELS 3 Zrotation Yrotation Xrotation
						End Site
						{
							OFFSET 0.000000 0.000000 0.000000
						}
					}
				}
			}
		}
	}
	JOINT RHipJoint
	{
		OFFSET 0.000000 0.000000 0.000000
		CHANNELS 3 Zrotation Yrotation Xrotation
		JOINT RightUpLeg
		{
			OFFSET -1.800000 -1.400000 0.085000
			CHANNELS 3 Zrotation Yrotation Xrotation
			JOINT RightLeg
			{
				OFFSET -2.215000 -6.000000 0.000000
				CHANNELS 3 Zrotation Yrotation Xrotation
				JOINT RightFoot
				{
					OFFSET -2.500000 -6.900000 0.000000
					CHANNELS 3 Zrotation Yrotation Xrotation
					JOINT RightToeBase
					{
						OFFSET -0.200000 -0.500000 1.950000
						CHANNELS 3 Zrotation Yrotation Xrotation
						End Site
						{
							OFFSET 0.000000 0.000000 0.000000
						}
					}
				}
			}
		}
	}
	JOINT LowerBack
	{
		OFFSET 0.000000 0.000000 0.000000
		CHANNELS 3 Zrotation Yrotation Xrotation
		JOINT Spine
		{
			OFFSET -0.087000 1.940000 -0.288900
			CHANNELS 3 Zrotation Yrotation Xrotation
			JOINT Spine1
			{
				OFFSET 0.000000 1.950000 0.060000
				CHANNELS 3 Zrotation Yrotation Xrotation
				JOINT Neck
				{
					OFFSET 0.000000 0.000000 0.000000
					CHANNELS 3 Zrotation Yrotation Xrotation
					JOINT Neck1
					{
						OFFSET 0.000000 1.600000 0.340000
						CHANNELS 3 Zrotation Yrotation Xrotation
						JOINT Head
						{
							OFFSET 0.000000 1.667000 -0.240000
							CHANNELS 3 Zrotation Yrotation Xrotation
							End Site
							{
								OFFSET 0.000000 0.000000 0.000000
							}
						}
					}
				}
				JOINT LeftShoulder
				{
					OFFSET 0.000000 0.000000 0.000000
					CHANNELS 3 Zrotation Yrotation Xrotation
					JOINT LeftArm
					{
						OFFSET 2.700000 1.550000 -0.730000
						CHANNELS 3 Zrotation Yrotation Xrotation
						JOINT LeftForeArm
						{
							OFFSET 5.450000 0.000000 0.000000
							CHANNELS 3 Zrotation Yrotation Xrotation
							JOINT LeftHand
							{
								OFFSET 3.450000 0.000000 0.000000
								CHANNELS 3 Zrotation Yrotation Xrotation
								JOINT LeftHandIndex1
								{
									OFFSET 0.750000 0.000000 0.000000
									CHANNELS 3 Zrotation Yrotation Xrotation
									End Site
									{
										OFFSET 0.000000 0.000000 0.000000
									}
								}
							}
						}
					}
				}
				JOINT RightShoulder
				{
					OFFSET 0.000000 0.000000 0.000000
					CHANNELS 3 Zrotation Yrotation Xrotation
					JOINT RightArm
					{
						OFFSET -2.700000 1.550000 -0.730000
						CHANNELS 3 Zrotation Yrotation Xrotation
						JOINT RightForeArm
						{
							OFFSET -5.450000 0.000000 0.000000
							CHANNELS 3 Zrotation Yrotation Xrotation
							JOINT RightHand
							{
								OFFSET -3.450000 0.000000 0.000000
								CHANNELS 3 Zrotation Yrotation Xrotation
								JOINT RightHandIndex1
								{
									OFFSET -0.750000 0.000000 0.000000
									CHANNELS 3 Zrotation Yrotation Xrotation
									End Site
									{
										OFFSET 0.000000 0.000000 0.000000
									}
								}
							}
						}
					}
				}
			}
		}
	}
}
MOTION
Frames: 13
Frame Time: 0.016667
-0.351610 16.963700 -1.184340 -1.176355 24.834883 -13.563040 -15.736044 14.171171 3.203911 3.886247 1.453342 3.178855 -3.275946 5.241859 9.045498 -0.524498 5.285972 3.106502 0.167010 -0.322420 -0.223590 17.535816 -10.672762 3.023369 -6.850441 -0.093775 -4.526236 6.961225 -4.816302 4.295091 -0.543205 -3.621713 3.229135 -0.151960 0.760150 0.571540 -2.326195 -2.950066 -8.331959 8.003589 0.341255 18.038044 -6.222448 2.750090 19.549545 12.750823 -7.258214 -18.843565 -18.066810 0.998656 50.731613 4.622460 -13.265890 -22.899860 -31.699390 -28.692462 10.470035 -49.034700 -9.530470 -3.995743 2.143240 -17.853546 -3.490817 -3.528041 2.738686 1.121460 0.068570 0.148020 0.455530 9.392993 43.018560 12.689043 4.519312 14.079274 -25.570648 -92.718170 28.883549 -37.590878 2.079494 -1.229254 -0.408190 0.616160 0.382930 0.036050 
-0.350080 16.962220 -1.182560 -1.266495 24.946382 -13.610676 -15.727783 14.160842 3.190845 3.990496 1.445100 3.154583 -3.296464 5.258584 9.122428 -0.529452 5.297379 3.103057 0.162890 -0.327740 -0.230980 17.545757 -10.674527 3.031623 -6.822287 -0.096916 -4.463364 6.994499 -4.809918 4.168225 -0.540364 -3.635887 3.226677 -0.151060 0.767680 0.570780 -2.357108 -2.922811 -8.327180 8.231006 0.265244 18.011876 -6.358665 2.685158 19.625528 12.844025 -7.366021 -18.770547 -18.188028 0.978961 50.383813 4.679070 -13.327890 -22.787130 -31.602181 -28.624773 10.418603 -49.084153 -9.625636 -3.966040 2.128686 -17.814890 -3.491289 -3.537218 2.740715 1.116760 0.074430 0.138870 0.455220 9.116342 43.005767 12.610413 4.077876 13.988195 -25.548134 -92.586147 28.570385 -37.195866 2.078338 -1.240773 -0.411710 0.617460 0.389050 0.036160 
-0.348190 16.961720 -1.181400 -1.271835 25.099402 -13.678133 -15.734970 14.179868 3.195844 4.062186 1.456682 3.196138 -3.333857 5.281413 9.132228 -0.525159 5.309512 3.096157 0.154490 -0.332400 -0.244030 17.536709 -10.655572 3.037337 -6.884464 -0.100855 -4.365147 7.042744 -4.801485 4.033154 -0.536135 -3.643688 3.226542 -0.152980 0.770420 0.566140 -2.334348 -2.980526 -8.340281 8.292268 0.184551 18.158449 -6.466860 2.661324 19.625708 13.040486 -7.522799 -18.838254 -18.539643 1.057868 50.247519 4.794030 -13.439870 -22.763090 -31.800343 -28.572301 10.429286 -49.057407 -9.506445 -4.162931 2.387421 -18.080783 -3.568159 -3.533676 2.747488 1.112140 0.075030 0.132450 0.452240 8.949765 43.177781 12.572927 3.346301 13.659087 -25.542127 -92.727896 28.179487 -36.798903 2.084876 -1.251123 -0.412780 0.617340 0.396490 0.038780 
-0.347720 16.959720 -1.176930 -1.171130 25.386991 -13.618079 -15.746752 14.182468 3.207421 4.069786 1.465565 3.253860 -3.468959 5.294055 8.981669 -0.504293 5.316339 3.095286 0.154990 -0.331960 -0.248070 17.524788 -10.636482 3.039803 -7.070082 -0.100872 -4.321587 7.112473 -4.785833 3.829273 -0.538023 -3.654624 3.221546 -0.158160 0.771310 0.574530 -2.300288 -3.016619 -8.354644 8.170886 0.170337 18.160270 -6.503181 2.665652 19.634063 13.180022 -7.595733 -18.932585 -18.729463 0.993704 50.158649 4.832630 -13.637170 -22.538770 -31.959952 -28.551269 10.454823 -48.981370 -9.381233 -4.318037 2.492641 -18.315650 -3.609214 -3.527525 2.767405 1.102270 0.076190 0.133290 0.456160 8.869326 43.321622 12.614305 2.752807 13.342124 -25.465572 -93.419687 27.549130 -36.600883 2.095514 -1.276416 -0.401110 0.606030 0.393030 0.046900 
-0.348330 16.955870 -1.171930 -1.001681 25.653342 -13.487586 -15.754571 14.172762 3.215751 4.002403 1.474652 3.266477 -3.607233 5.307060 8.872085 -0.497721 5.323659 3.097829 0.151660 -0.338460 -0.255380 17.517334 -10.630548 3.037535 -7.284359 -0.089981 -4.396373 7.196744 -4.780616 3.707523 -0.533190 -3.664184 3.224008 -0.162080 0.778720 0.576460 -2.279876 -3.012525 -8.358989 8.011719 0.224211 18.133372 -6.457767 2.716258 19.569413 13.216114 -7.617593 -18.930397 -18.740593 0.817026 50.003197 4.773030 -13.842300 -22.266270 -32.012926 -28.461663 10.417927 -48.994158 -9.298540 -4.420253 2.449326 -18.549149 -3.630593 -3.528355 2.774394 1.096820 0.082140 0.126220 0.461260 8.869458 43.322550 12.643740 2.315598 13.280540 -25.230197 -94.624778 26.714080 -36.625352 2.087755 -1.298499 -0.401020 0.603510 0.393310 0.049860 
-0.345780 16.952790 -1.168000 -0.907253 25.809257 -13.457081 -15.746437 14.168176 3.222096 3.959242 1.482544 3.308750 -3.690256 5.328472 8.883663 -0.493663 5.335176 3.100602 0.146700 -0.347250 -0.261050 17.522164 -10.634643 3.039945 -7.487640 -0.085834 -4.431709 7.283897 -4.783996 3.634309 -0.531234 -3.673218 3.224410 -0.166050 0.785540 0.573860 -2.308294 -3.000736 -8.369733 8.231276 0.198563 18.263141 -6.591132 2.741331 19.461736 13.260618 -7.746363 -18.950051 -19.017523 0.736349 49.878292 4.827520 -14.071450 -22.228700 -32.155787 -28.382323 10.379751 -48.915263 -9.177552 -4.540623 2.262676 -18.813526 -3.628239 -3.522000 2.774765 1.097710 0.082580 0.121780 0.466220 8.910945 43.389781 12.668601 1.939924 13.301002 -25.014038 -96.141895 25.896153 -36.872937 2.081666 -1.314947 -0.406430 0.607120 0.392940 0.052470 
-0.345100 16.952780 -1.162780 -0.674201 25.977472 -13.449911 -15.765205 14.193920 3.250918 3.820344 1.526310 3.505312 -3.725412 5.333425 8.741068 -0.481374 5.343089 3.096274 0.144460 -0.348880 -0.262500 17.499962 -10.613569 3.031718 -7.725337 -0.102315 -4.378430 7.249407 -4.777689 3.588514 -0.531966 -3.668491 3.223348 -0.170530 0.777390 0.569910 -2.245985 -3.088493 -8.390882 8.023338 0.270584 18.455568 -6.497627 2.832970 19.412897 13.320217 -7.771589 -19.124769 -19.303755 0.730979 50.271965 4.852310 -14.308260 -22.386270 -32.486202 -28.489035 10.435633 -48.605055 -9.014080 -4.635628 2.106620 -18.973761 -3.605873 -3.504517 2.779714 1.101280 0.072750 0.125690 0.463750 9.151807 43.675038 12.768951 1.611527 13.204279 -24.882989 -97.704999 25.195187 -37.230836 2.083103 -1.327212 -0.404180 0.604880 0.392980 0.053650 
-0.344530 16.953320 -1.158330 -0.533526 26.133461 -13.523936 -15.769866 14.214590 3.274344 3.773875 1.560508 3.701064 -3.755584 5.341998 8.640137 -0.475546 5.359656 3.087983 0.143680 -0.354800 -0.262930 17.490524 -10.605602 3.027093 -7.867765 -0.121575 -4.302860 7.160324 -4.778861 3.579940 -0.535516 -3.663518 3.223279 -0.176860 0.770880 0.571850 -2.229590 -3.144571 -8.412367 8.060953 0.285973 18.712322 -6.604435 2.908738 19.398236 13.379153 -7.752053 -19.323405 -19.500529 0.792413 50.765832 5.073690 -14.507580 -22.684560 -32.733042 -28.655379 10.513599 -48.310359 -8.862851 -4.737644 2.105099 -19.089683 -3.613251 -3.490452 2.784494 1.112160 0.063740 0.130800 0.461230 9.275787 43.942382 12.883585 1.580619 13.224321 -24.849481 -99.377011 24.426442 -37.721191 2.077799 -1.338470 -0.402790 0.602010 0.396450 0.051570 
-0.342830 16.954300 -1.154560 -0.553667 26.408802 -13.666473 -15.762095 14.237354 3.292615 3.895907 1.580685 3.864310 -3.814207 5.361219 8.536478 -0.465143 5.376039 3.080053 0.139800 -0.361280 -0.263180 17.491867 -10.604330 3.028319 -7.861567 -0.150332 -4.194307 6.993274 -4.769489 3.577263 -0.539047 -3.649944 3.227165 -0.185280 0.763390 0.571560 -2.255449 -3.189301 -8.436551 8.408637 0.198402 19.008832 -6.821206 2.901811 19.366370 13.428939 -7.750599 -19.525287 -19.758646 0.843388 51.244409 5.350120 -14.733450 -23.087800 -32.967299 -28.832940 10.582069 -48.029129 -8.771001 -4.801837 2.105020 -19.134995 -3.605896 -3.477868 2.784337 1.119830 0.053590 0.136970 0.455850 9.375216 44.161585 13.027497 1.737252 13.241733 -24.798516 -101.175503 23.750877 -38.458479 2.072626 -1.345187 -0.399460 0.600720 0.400030 0.051140 
-0.340770 16.953140 -1.149920 -0.570347 26.647531 -13.693473 -15.749591 14.246103 3.301742 4.001557 1.586844 3.884541 -3.973975 5.406519 8.560575 -0.455488 5.391066 3.073892 0.133140 -0.371380 -0.268060 17.496975 -10.611764 3.034653 -7.932744 -0.147363 -4.225218 7.012590 -4.774814 3.578641 -0.539163 -3.645523 3.228239 -0.195070 0.762250 0.573300 -2.296284 -3.192225 -8.458609 8.720111 0.165345 19.165552 -6.946933 2.931910 19.251655 13.371052 -7.676003 -19.712180 -19.788826 0.827638 51.646611 5.589630 -14.946130 -23.008780 -33.211320 -28.982030 10.646212 -47.811962 -8.612331 -4.854977 1.985149 -19.230964 -3.584398 -3.470915 2.789477 1.121410 0.050260 0.137800 0.453260 9.684544 44.257569 13.225545 2.035566 13.212077 -24.629868 -102.957715 23.399298 -39.481922 2.064539 -1.351236 -0.396200 0.596050 0.404110 0.052460 
-0.340230 16.952690 -1.147250 -0.538341 26.963656 -13.717595 -15.744084 14.269079 3.316180 4.080031 1.590303 3.868190 -4.117426 5.444211 8.577785 -0.438287 5.397029 3.069985 0.129130 -0.374580 -0.274180 17.493875 -10.613047 3.035977 -8.010118 -0.146984 -4.264508 6.986622 -4.775628 3.636093 -0.540946 -3.634985 3.228497 -0.203600 0.757900 0.577900 -2.313749 -3.232181 -8.480375 8.917872 0.121262 19.416414 -7.028082 2.969399 19.129690 13.320254 -7.629961 -19.915053 -19.907867 0.779146 51.987897 5.853540 -15.220390 -23.035010 -33.492540 -29.098048 10.660415 -47.458985 -8.513026 -4.880931 1.760116 -19.278919 -3.527843 -3.459113 2.800935 1.119720 0.044120 0.144050 0.454040 10.023437 44.358084 13.474157 2.407443 12.979731 -24.537795 -104.669358 23.383028 -40.871435 2.061358 -1.356578 -0.386860 0.587660 0.403480 0.058970 
-0.340700 16.952160 -1.142930 -0.543661 27.293925 -13.710518 -15.731160 14.282458 3.325163 4.139636 1.580011 3.816675 -4.168339 5.452956 8.572340 -0.429393 5.387863 3.071480 0.125800 -0.377520 -0.280140 17.498961 -10.621579 3.040212 -8.043648 -0.143597 -4.320083 6.986156 -4.780128 3.696298 -0.540035 -3.627162 3.232648 -0.210980 0.753650 0.577730 -2.358275 -3.243695 -8.497070 9.225882 0.059930 19.604758 -7.123199 2.993320 18.946207 13.207766 -7.612833 -20.062311 -20.057576 0.717934 52.272768 6.100720 -15.498040 -23.044890 -33.727535 -29.137073 10.619206 -47.198759 -8.444312 -4.833037 1.499261 -19.201818 -3.451058 -3.450294 2.806458 1.118820 0.039220 0.145700 0.453790 10.424995 44.328730 13.732378 2.946664 12.778072 -24.374026 -106.234227 23.712197 -42.570837 2.050846 -1.352020 -0.380690 0.580540 0.402670 0.062770 
-0.341280 16.951120 -1.136910 -0.427022 27.629951 -13.625695 -15.723480 14.295218 3.338733 4.061955 1.575645 3.788702 -4.146111 5.440025 8.530649 -0.428131 5.378901 3.075526 0.113420 -0.393980 -0.290020 17.499134 -10.626786 3.041341 -8.200168 -0.137710 -4.373979 7.022580 -4.794287 3.734186 -0.536666 -3.621798 3.238691 -0.222710 0.755960 0.573710 -2.386140 -3.265805 -8.512535 9.359569 0.055691 19.756400 -7.170584 3.086124 18.664307 13.026639 -7.561910 -20.220725 -20.179646 0.702322 52.688651 6.501700 -15.769210 -23.007760 -33.914843 -29.132029 10.556394 -47.042637 -8.336332 -4.769571 1.261009 -19.124327 -3.389057 -3.447641 2.798365 1.124490 0.036090 0.143790 0.451440 10.915897 44.198573 14.047010 3.566712 12.452501 -24.149446 -107.645142 24.467181 -44.592369 2.035412 -1.325587 -0.384450 0.581710 0.409120 0.062740 
